<svg width="22" height="22" viewBox="0 0 22 22" fill="none" xmlns="http://www.w3.org/2000/svg">
<path d="M8.63511 19.3961V16.5247C8.63511 15.7947 9.22365 15.2064 9.96913 15.2015H12.6652C13.4199 15.2015 14.023 15.7884 14.023 16.5247V19.3852C14.023 20.0896 14.7337 20.8003 15.4783 20.8051H17.3155C18.0501 20.8074 18.75 20.4873 19.2429 19.9322C19.7359 19.3774 20 18.6491 20 17.8729V9.47635C20 8.83787 19.6784 8.24073 19.0873 7.82518L12.8022 2.69644C11.6161 1.76051 9.97531 1.79044 8.80198 2.65079L2.87663 7.82518C2.32944 8.23512 2.01684 8.83076 2 9.47635V17.8481C2 19.6726 3.40548 20.8051 4.94416 20.8051H6.65139C6.97353 20.8074 8.27476 20.7426 8.5 20.5C8.72524 20.2574 8.63511 19.8035 8.63511 19.3961Z" fill="#FACD66"/>
</svg>
