<svg width="22" height="22" viewBox="0 0 22 22" fill="none" xmlns="http://www.w3.org/2000/svg">
<path d="M10.5352 1.83325C12.8109 1.83325 14.6668 3.65742 14.6668 5.90325V10.2941H9.07091C8.66986 10.2941 8.35276 10.6057 8.35276 10.9999C8.35276 11.3849 8.66986 11.7057 9.07091 11.7057H14.6668V16.0874C14.6668 18.3332 12.8109 20.1666 10.5165 20.1666H5.97449C3.68949 20.1666 1.8335 18.3424 1.8335 16.0966V5.91242C1.8335 3.65742 3.69881 1.83325 5.98382 1.83325H10.5352ZM16.9954 7.8376C17.2704 7.55344 17.7195 7.55344 17.9945 7.82844L20.6712 10.4959C20.8087 10.6334 20.882 10.8076 20.882 11.0001C20.882 11.1834 20.8087 11.3667 20.6712 11.4951L17.9945 14.1626C17.857 14.3001 17.6737 14.3734 17.4995 14.3734C17.3162 14.3734 17.1329 14.3001 16.9954 14.1626C16.7204 13.8876 16.7204 13.4384 16.9954 13.1634L18.462 11.7059L14.6668 11.7057V10.2941L18.462 10.2942L16.9954 8.83677C16.7204 8.56177 16.7204 8.1126 16.9954 7.8376Z" fill="#EFEEE0" fill-opacity="0.25"/>
</svg>
