<svg width="22" height="22" viewBox="0 0 22 22" fill="none" xmlns="http://www.w3.org/2000/svg">
<path d="M15.5835 4.35425H14.6668V2.98841C14.6668 2.22758 14.0435 1.60425 13.2827 1.60425H8.71767C7.95684 1.60425 7.3335 2.22758 7.3335 2.98841V4.35425H6.41684C5.4085 4.35425 4.5835 5.17925 4.5835 6.18758V6.30675C4.87684 6.22425 5.17934 6.18758 5.50017 6.18758H16.5002C16.821 6.18758 17.1235 6.22425 17.4168 6.30675V6.18758C17.4168 5.17925 16.5918 4.35425 15.5835 4.35425Z" fill="#EFEEE0" fill-opacity="0.25"/>
<path d="M12.7691 15.5193C12.4758 15.5193 12.2466 15.7576 12.2466 16.0418C12.2466 16.3259 12.485 16.5643 12.7691 16.5643C13.0533 16.5643 13.2916 16.3259 13.2916 16.0418C13.2916 15.7576 13.0533 15.5193 12.7691 15.5193Z" fill="#EFEEE0" fill-opacity="0.25"/>
<path d="M8.314 16.3257C8.02066 16.3257 7.7915 16.5641 7.7915 16.8482C7.7915 17.1324 8.02983 17.3707 8.314 17.3707C8.59816 17.3707 8.8365 17.1324 8.8365 16.8482C8.8365 16.5641 8.60733 16.3257 8.314 16.3257Z" fill="#EFEEE0" fill-opacity="0.25"/>
<path d="M17.4168 7.68167C17.1235 7.59917 16.821 7.5625 16.5002 7.5625H5.50017C5.17934 7.5625 4.87684 7.59917 4.5835 7.68167C3.00684 8.09417 1.8335 9.53333 1.8335 11.2292V16.7292C1.8335 18.7458 3.4835 20.3958 5.50017 20.3958H16.5002C18.5168 20.3958 20.1668 18.7458 20.1668 16.7292V11.2292C20.1668 9.53333 18.9935 8.09417 17.4168 7.68167ZM14.6668 12.1733V16.0417C14.6668 17.0867 13.8143 17.9392 12.7693 17.9392C11.7243 17.9392 10.8718 17.0867 10.8718 16.0417C10.8718 14.9967 11.7243 14.1442 12.7693 14.1442C12.9527 14.1442 13.1268 14.1808 13.2918 14.2267V13.0717L10.221 13.9058V16.8483C10.221 16.8575 10.221 16.8667 10.2118 16.8758C10.2027 17.9117 9.35017 18.755 8.31434 18.755C7.26934 18.755 6.41684 17.9025 6.41684 16.8483C6.41684 15.7942 7.26934 14.9508 8.31434 14.9508C8.49767 14.9508 8.67184 14.9875 8.846 15.0333V13.3833V11.9625C8.846 11.1742 9.341 10.5325 10.0927 10.3308L12.5218 9.66167C13.301 9.45083 13.796 9.6525 14.071 9.86333C14.346 10.0742 14.6668 10.4867 14.6668 11.3025V12.1733Z" fill="#EFEEE0" fill-opacity="0.25"/>
</svg>
