<svg width="22" height="22" viewBox="0 0 22 22" fill="none" xmlns="http://www.w3.org/2000/svg">
<path d="M7.104 1.83325V4.58325H6.4165C6.17816 4.58325 5.949 4.59242 5.729 4.62908V1.83325C5.729 1.45741 6.04066 1.14575 6.4165 1.14575C6.79233 1.14575 7.104 1.45741 7.104 1.83325Z" fill="#FACD66"/>
<path d="M15.5835 4.58325H6.41684C6.1785 4.58325 5.94934 4.59242 5.72934 4.62908C3.36434 4.90408 1.8335 6.65491 1.8335 9.16658V15.5832C1.8335 18.3332 3.66684 20.1666 6.41684 20.1666H15.5835C18.3335 20.1666 20.1668 18.3332 20.1668 15.5832V9.16658C20.1668 6.41658 18.3335 4.58325 15.5835 4.58325ZM7.2235 14.6666C5.9585 14.6666 4.93184 13.6399 4.93184 12.3749C4.93184 11.1099 5.9585 10.0832 7.2235 10.0832C8.4885 10.0832 9.51517 11.1099 9.51517 12.3749C9.51517 13.6399 8.4885 14.6666 7.2235 14.6666ZM13.1818 14.8957H12.7235C12.3477 14.8957 12.036 14.5841 12.036 14.2082C12.036 13.8324 12.3477 13.5207 12.7235 13.5207H13.1818C13.5577 13.5207 13.8693 13.8324 13.8693 14.2082C13.8693 14.5841 13.5577 14.8957 13.1818 14.8957ZM16.3902 14.8957H15.9318C15.556 14.8957 15.2443 14.5841 15.2443 14.2082C15.2443 13.8324 15.556 13.5207 15.9318 13.5207H16.3902C16.766 13.5207 17.0777 13.8324 17.0777 14.2082C17.0777 14.5841 16.766 14.8957 16.3902 14.8957ZM16.3902 11.2291H12.7235C12.3477 11.2291 12.036 10.9174 12.036 10.5416C12.036 10.1657 12.3477 9.85408 12.7235 9.85408H16.3902C16.766 9.85408 17.0777 10.1657 17.0777 10.5416C17.0777 10.9174 16.766 11.2291 16.3902 11.2291Z" fill="#FACD66"/>
</svg>
