<svg width="22" height="22" viewBox="0 0 22 22" fill="none" xmlns="http://www.w3.org/2000/svg">
<path d="M10.3127 7.20508H1.8335V14.8409C1.8335 14.8959 1.8335 14.9509 1.84267 14.9968H10.3127V7.20508Z" fill="#FACD66"/>
<path d="M7.04932 5.82992H10.3126V1.83325H7.07682V5.71991C7.07682 5.75658 7.05849 5.79325 7.04932 5.82992Z" fill="#FACD66"/>
<path d="M5.70181 5.71998V1.97998C3.66681 2.40164 2.33764 3.75831 1.95264 5.82998H5.72014C5.71098 5.79331 5.70181 5.75664 5.70181 5.71998Z" fill="#FACD66"/>
<path d="M14.8683 1.83325H11.6875V5.82992H14.8683V1.83325Z" fill="#FACD66"/>
<path d="M16.2344 5.83012H20.0477C19.6627 3.74012 18.3152 2.37428 16.2436 1.97095V5.80262C16.2436 5.81178 16.2344 5.82095 16.2344 5.83012Z" fill="#FACD66"/>
<path d="M16.2432 20.0291C18.2507 19.6349 19.5707 18.3516 20.0016 16.3716H16.2432V20.0291Z" fill="#FACD66"/>
<path d="M14.8683 16.3716H11.6875V20.1666H14.8683V16.3716Z" fill="#FACD66"/>
<path d="M11.6875 14.9968H20.1575C20.1667 14.9509 20.1667 14.8959 20.1667 14.8409V7.20508H11.6875V14.9968Z" fill="#FACD66"/>
<path d="M10.3125 16.3716H7.07666V20.1666H10.3125V16.3716Z" fill="#FACD66"/>
<path d="M1.99854 16.3716C2.42938 18.3332 3.73104 19.6166 5.70188 20.0199V16.3716H1.99854Z" fill="#FACD66"/>
</svg>
